<svg width="674" height="674" viewBox="0 0 674 674" fill="none" xmlns="http://www.w3.org/2000/svg">
<path d="M605 0C643.108 3.92999e-06 674 30.8924 674 69V605C674 643.108 643.108 674 605 674H414V593H439L520 376.5C521.833 372.333 526.4 363 530 359C534.5 354 537 346.5 537 341C537 335.529 532.547 311.258 470 294.27V149C470 140.714 467.198 133.084 462.494 127H382.506C377.802 133.084 375 140.714 375 149V275.253C350.381 273.121 325.624 273.092 301 275.167V149C301 140.714 298.198 133.084 293.494 127H213.506C208.802 133.084 206 140.714 206 149V294L204.522 294.399C142.43 311.381 138 335.543 138 341C138 346.5 140.5 354 145 359C148.6 363 153.167 372.333 155 376.5L237 593H262V674H69C30.8924 674 0 643.108 0 605V69C3.9305e-06 30.8924 30.8924 0 69 0H605Z" fill="white"/>
</svg>
